dataset
version=1
nRows=16
nColumns=39
inDegrees=no
endheader
time	sternoclavicular_r2	sternoclavicular_r3	unrotscap_r3	unrotscap_r2	acromioclavicular_r2	acromioclavicular_r3	acromioclavicular_r1	unrothum_r1	unrothum_r3	unrothum_r2	elv_angle	shoulder_elv	shoulder1_r2	shoulder_rot	elbow_flexion	pro_sup	deviation	flexion	cmc_abduction	cmc_flexion	mp_flexion	ip_flexion	mcp2_flexion	mcp2_abduction	pm2_flexion	md2_flexion	mcp3_flexion	mcp3_abduction	pm3_flexion	md3_flexion	mcp4_flexion	mcp4_abduction	pm4_flexion	md4_flexion	mcp5_flexion	mcp5_abduction	pm5_flexion	md5_flexion
5.060000	-0.018536	-0.260345	0.106899	0.120678	0.105176	0.075280	-0.076036	-0.115776	0.093411	0.138246	0.123854	0.027437	0.146525	0.146525	1.273337	1.297004	0.000000	0.000000	0.000000	0.000000	0.000000	0.000000	0.000000	0.000000	0.000000	0.000000	0.000000	0.000000	0.000000	0.000000	0.000000	0.000000	0.000000	0.000000	0.000000	0.000000	0.000000	0.000000
5.065000	-0.018410	-0.260438	0.107194	0.119409	0.103858	0.075390	-0.076248	-0.115952	0.092752	0.136989	0.122426	0.027437	0.146525	0.146525	1.271079	1.297056	0.000000	0.000000	0.000000	0.000000	0.000000	0.000000	0.000000	0.000000	0.000000	0.000000	0.000000	0.000000	0.000000	0.000000	0.000000	0.000000	0.000000	0.000000	0.000000	0.000000	0.000000	0.000000
5.070000	-0.018290	-0.260528	0.107482	0.118156	0.102552	0.075518	-0.076442	-0.116084	0.092099	0.135734	0.121011	0.027437	0.146525	0.146525	1.268651	1.297118	0.000000	0.000000	0.000000	0.000000	0.000000	0.000000	0.000000	0.000000	0.000000	0.000000	0.000000	0.000000	0.000000	0.000000	0.000000	0.000000	0.000000	0.000000	0.000000	0.000000	0.000000	0.000000
5.075000	-0.018176	-0.260617	0.107763	0.116920	0.101262	0.075664	-0.076618	-0.116174	0.091454	0.134483	0.119610	0.027437	0.146525	0.146525	1.266054	1.297189	0.000000	0.000000	0.000000	0.000000	0.000000	0.000000	0.000000	0.000000	0.000000	0.000000	0.000000	0.000000	0.000000	0.000000	0.000000	0.000000	0.000000	0.000000	0.000000	0.000000	0.000000	0.000000
5.080000	-0.018068	-0.260703	0.108037	0.115703	0.099987	0.075827	-0.076774	-0.116222	0.090819	0.133237	0.118225	0.027437	0.146525	0.146525	1.263290	1.297270	0.000000	0.000000	0.000000	0.000000	0.000000	0.000000	0.000000	0.000000	0.000000	0.000000	0.000000	0.000000	0.000000	0.000000	0.000000	0.000000	0.000000	0.000000	0.000000	0.000000	0.000000	0.000000
5.085000	-0.017965	-0.260787	0.108303	0.114508	0.098731	0.076007	-0.076911	-0.116227	0.090193	0.131999	0.116859	0.027437	0.146525	0.146525	1.260361	1.297361	0.000000	0.000000	0.000000	0.000000	0.000000	0.000000	0.000000	0.000000	0.000000	0.000000	0.000000	0.000000	0.000000	0.000000	0.000000	0.000000	0.000000	0.000000	0.000000	0.000000	0.000000	0.000000
5.090000	-0.017869	-0.260868	0.108561	0.113336	0.097494	0.076204	-0.077029	-0.116190	0.089579	0.130771	0.115514	0.027437	0.146525	0.146525	1.257270	1.297460	0.000000	0.000000	0.000000	0.000000	0.000000	0.000000	0.000000	0.000000	0.000000	0.000000	0.000000	0.000000	0.000000	0.000000	0.000000	0.000000	0.000000	0.000000	0.000000	0.000000	0.000000	0.000000
5.095000	-0.017780	-0.260946	0.108809	0.112188	0.096280	0.076418	-0.077126	-0.116111	0.088977	0.129554	0.114192	0.027437	0.146525	0.146525	1.254021	1.297568	0.000000	0.000000	0.000000	0.000000	0.000000	0.000000	0.000000	0.000000	0.000000	0.000000	0.000000	0.000000	0.000000	0.000000	0.000000	0.000000	0.000000	0.000000	0.000000	0.000000	0.000000	0.000000
5.100000	-0.017696	-0.261022	0.109049	0.111067	0.095090	0.076647	-0.077204	-0.115992	0.088389	0.128350	0.112894	0.027437	0.146525	0.146525	1.250615	1.297685	0.000000	0.000000	0.000000	0.000000	0.000000	0.000000	0.000000	0.000000	0.000000	0.000000	0.000000	0.000000	0.000000	0.000000	0.000000	0.000000	0.000000	0.000000	0.000000	0.000000	0.000000	0.000000
5.105000	-0.017619	-0.261095	0.109280	0.109973	0.093924	0.076893	-0.077262	-0.115832	0.087815	0.127162	0.111623	0.027437	0.146525	0.146525	1.247058	1.297810	0.000000	0.000000	0.000000	0.000000	0.000000	0.000000	0.000000	0.000000	0.000000	0.000000	0.000000	0.000000	0.000000	0.000000	0.000000	0.000000	0.000000	0.000000	0.000000	0.000000	0.000000	0.000000
5.110000	-0.017549	-0.261165	0.109500	0.108909	0.092786	0.077153	-0.077299	-0.115633	0.087258	0.125991	0.110381	0.027437	0.146525	0.146525	1.243353	1.297944	0.000000	0.000000	0.000000	0.000000	0.000000	0.000000	0.000000	0.000000	0.000000	0.000000	0.000000	0.000000	0.000000	0.000000	0.000000	0.000000	0.000000	0.000000	0.000000	0.000000	0.000000	0.000000
5.115000	-0.017485	-0.261233	0.109711	0.107877	0.091677	0.077427	-0.077317	-0.115395	0.086716	0.124839	0.109169	0.027437	0.146525	0.146525	1.239505	1.298085	0.000000	0.000000	0.000000	0.000000	0.000000	0.000000	0.000000	0.000000	0.000000	0.000000	0.000000	0.000000	0.000000	0.000000	0.000000	0.000000	0.000000	0.000000	0.000000	0.000000	0.000000	0.000000
5.120000	-0.017428	-0.261297	0.109912	0.106876	0.090597	0.077715	-0.077314	-0.115121	0.086192	0.123707	0.107988	0.027437	0.146525	0.146525	1.235518	1.298234	0.000000	0.000000	0.000000	0.000000	0.000000	0.000000	0.000000	0.000000	0.000000	0.000000	0.000000	0.000000	0.000000	0.000000	0.000000	0.000000	0.000000	0.000000	0.000000	0.000000	0.000000	0.000000
5.125000	-0.017378	-0.261358	0.110102	0.105909	0.089550	0.078017	-0.077292	-0.114809	0.085687	0.122598	0.106842	0.027437	0.146525	0.146525	1.231397	1.298391	0.000000	0.000000	0.000000	0.000000	0.000000	0.000000	0.000000	0.000000	0.000000	0.000000	0.000000	0.000000	0.000000	0.000000	0.000000	0.000000	0.000000	0.000000	0.000000	0.000000	0.000000	0.000000
5.130000	-0.017335	-0.261417	0.110282	0.104978	0.088536	0.078331	-0.077251	-0.114463	0.085201	0.121513	0.105731	0.027437	0.146525	0.146525	1.227149	1.298554	0.000000	0.000000	0.000000	0.000000	0.000000	0.000000	0.000000	0.000000	0.000000	0.000000	0.000000	0.000000	0.000000	0.000000	0.000000	0.000000	0.000000	0.000000	0.000000	0.000000	0.000000	0.000000
5.135000	-0.017298	-0.261472	0.110451	0.104082	0.087556	0.078657	-0.077190	-0.114083	0.084735	0.120454	0.104658	0.027437	0.146525	0.146525	1.222779	1.298724	0.000000	0.000000	0.000000	0.000000	0.000000	0.000000	0.000000	0.000000	0.000000	0.000000	0.000000	0.000000	0.000000	0.000000	0.000000	0.000000	0.000000	0.000000	0.000000	0.000000	0.000000	0.000000
